<!-- Generator: Adobe Illustrator 19.2.1, SVG Export Plug-In  -->
<svg version="1.1"
	 xmlns="http://www.w3.org/2000/svg" xmlns:xlink="http://www.w3.org/1999/xlink" xmlns:a="http://ns.adobe.com/AdobeSVGViewerExtensions/3.0/"
	 x="0px" y="0px" width="440.9px" height="227.5px" viewBox="0 0 440.9 227.5" enable-background="new 0 0 440.9 227.5"
	 xml:space="preserve">
<defs>
</defs>
<g>
	<path fill="#C2B59B" d="M162.5,175c-8.7,0-15.7,7-15.7,15.7c0,8.7,7,15.7,15.7,15.7c8.7,0,15.7-7,15.7-15.7
		C178.2,182,171.2,175,162.5,175z"/>
	<path fill="#C2B59B" d="M371.7,175c-8.7,0-15.7,7-15.7,15.7c0,8.7,7,15.7,15.7,15.7c8.7,0,15.7-7,15.7-15.7
		C387.4,182,380.4,175,371.7,175z"/>
	<path fill="#594A42" d="M371.7,159.6c-17.1,0-31,13.9-31,31c0,17.1,13.9,31,31,31c17.1,0,31-13.9,31-31
		C402.7,173.6,388.8,159.6,371.7,159.6z M371.7,212.2c-11.9,0-21.5-9.7-21.5-21.5c0-11.9,9.7-21.5,21.5-21.5
		c11.9,0,21.5,9.7,21.5,21.5C393.3,202.5,383.6,212.2,371.7,212.2z"/>
	<path fill="#EB775C" d="M408.4,187.8h26.6V175h-30C406.9,178.9,408.1,183.2,408.4,187.8z"/>
	<path fill="#EB775C" d="M292.7,5.8H106.5v119.4h186.2V5.8z M275.5,106.8c0,1.6-1.3,2.9-2.9,2.9H218v2.4c0,1.6-1.3,2.9-2.9,2.9
		h-76.2c-1.6,0-2.9-1.3-2.9-2.9V26.1c0-1.6,1.3-2.9,2.9-2.9H215c1.6,0,2.9,1.3,2.9,2.9v13.8h54.6c1.6,0,2.9,1.3,2.9,2.9V106.8z"/>
	<rect x="106.5" y="131.1" fill="#E6E7E8" width="186.2" height="10.2"/>
	<path fill="#EB775C" d="M97.7,187.8h28.1c0.4-4.5,1.5-8.9,3.4-12.8H97.7V187.8z"/>
	<path fill="#EB775C" d="M162.5,153.8c12.3,0,23.2,6,29.9,15.3h100.3v-22H106.5v22h26.1C139.3,159.9,150.2,153.8,162.5,153.8z"/>
	<path fill="#594A42" d="M162.5,159.6c-17.1,0-31,13.9-31,31c0,17.1,13.9,31,31,31c17.1,0,31-13.9,31-31
		C193.5,173.6,179.6,159.6,162.5,159.6z M162.5,212.2c-11.9,0-21.5-9.7-21.5-21.5c0-11.9,9.7-21.5,21.5-21.5
		c11.9,0,21.5,9.7,21.5,21.5C184,202.5,174.4,212.2,162.5,212.2z"/>
	<path fill="#E6E7E8" d="M199.2,187.8H335c0.4-4.5,1.5-8.9,3.4-12.8H195.8C197.7,178.9,198.9,183.2,199.2,187.8z"/>
	<path fill="#FFFFFF" d="M185.7,52.3c0,1.6-1.3,2.9-2.9,2.9h-14.3c-1.6,0-2.9-1.3-2.9-2.9V29h-23.7v80.3h70.3V29h-26.5V52.3z"/>
	<path fill="#E6E7E8" d="M371.7,153.8c12.3,0,23.2,6,29.9,15.3H424v-9.5h-24c-1.6,0-2.9-1.3-2.9-2.9v-16.6c0-1.6,1.3-2.9,2.9-2.9h24
		v-15.8l-41.5-81h-84v128.7h43.3C348.5,159.9,359.4,153.8,371.7,153.8z M337.1,50.4c0-1.6,1.3-2.9,2.9-2.9h31.7c1.1,0,2,0.6,2.6,1.5
		l33.9,61.8c0.5,0.9,0.5,2,0,2.9c-0.5,0.9-1.5,1.4-2.5,1.4H340c-1.6,0-2.9-1.3-2.9-2.9V50.4z M303.6,112.2V50.4
		c0-1.6,1.3-2.9,2.9-2.9H326c1.6,0,2.9,1.3,2.9,2.9v61.8c0,1.6-1.3,2.9-2.9,2.9h-19.5C304.9,115.1,303.6,113.8,303.6,112.2z
		 M319.8,134.4c-1.6,0-2.9-1.3-2.9-2.9c0-1.6,1.3-2.9,2.9-2.9H340c1.6,0,2.9,1.3,2.9,2.9c0,1.6-1.3,2.9-2.9,2.9H319.8z"/>
	<rect x="403" y="143.1" fill="#EB775C" width="21" height="10.7"/>
	<path fill="#FFFFFF" d="M250.5,65c0,1.6-1.3,2.9-2.9,2.9h-9.9c-1.6,0-2.9-1.3-2.9-2.9V45.7H218v58.2h51.7V45.7h-19.2V65z"/>
	<rect x="240.6" y="45.7" fill="#C2B59B" width="4.1" height="16.3"/>
	<rect x="171.3" y="29" fill="#C2B59B" width="8.5" height="20.4"/>
	<path fill="#551C00" d="M162.5,169.1c-11.9,0-21.5,9.7-21.5,21.5c0,11.9,9.7,21.5,21.5,21.5c11.9,0,21.5-9.7,21.5-21.5
		C184,178.8,174.4,169.1,162.5,169.1z M162.5,206.4c-8.7,0-15.7-7-15.7-15.7c0-8.7,7-15.7,15.7-15.7c8.7,0,15.7,7,15.7,15.7
		C178.2,199.3,171.2,206.4,162.5,206.4z"/>
	<path fill="#551C00" d="M371.7,169.1c-11.9,0-21.5,9.7-21.5,21.5c0,11.9,9.7,21.5,21.5,21.5c11.9,0,21.5-9.7,21.5-21.5
		C393.3,178.8,383.6,169.1,371.7,169.1z M371.7,206.4c-8.7,0-15.7-7-15.7-15.7c0-8.7,7-15.7,15.7-15.7c8.7,0,15.7,7,15.7,15.7
		C387.4,199.3,380.4,206.4,371.7,206.4z"/>
	<path fill="#551C00" d="M438,169.1h-8.1v-48.4c0-0.5-0.1-0.9-0.3-1.3l-42.6-83.2c-0.5-1-1.5-1.6-2.6-1.6h-85.8V2.9
		c0-1.6-1.3-2.9-2.9-2.9h-192c-1.6,0-2.9,1.3-2.9,2.9v166.2h-5.9c-1.6,0-2.9,1.3-2.9,2.9v18.6c0,1.6,1.3,2.9,2.9,2.9h31
		c1.5,19,17.4,33.9,36.7,33.9c19.3,0,35.2-15,36.7-33.9H335c1.5,19,17.4,33.9,36.7,33.9c19.3,0,35.2-15,36.7-33.9H438
		c1.6,0,2.9-1.3,2.9-2.9V172C440.9,170.4,439.6,169.1,438,169.1z M298.5,40.5h84l41.5,81v15.8h-24c-1.6,0-2.9,1.3-2.9,2.9v16.6
		c0,1.6,1.3,2.9,2.9,2.9h24v9.5h-22.4c-6.7-9.3-17.6-15.3-29.9-15.3c-12.3,0-23.2,6-29.9,15.3h-43.3V40.5z M424,143.1v10.7h-21
		v-10.7H424z M106.5,5.8h186.2v119.4H106.5V5.8z M106.5,131.1h186.2v10.2H106.5V131.1z M106.5,147.1h186.2v22H192.4
		c-6.7-9.3-17.6-15.3-29.9-15.3s-23.2,6-29.9,15.3h-26.1V147.1z M125.8,187.8H97.7V175h31.5C127.3,178.9,126.1,183.2,125.8,187.8z
		 M162.5,221.7c-17.1,0-31-13.9-31-31c0-17.1,13.9-31,31-31c17.1,0,31,13.9,31,31C193.5,207.8,179.6,221.7,162.5,221.7z M335,187.8
		H199.2c-0.4-4.5-1.5-8.9-3.4-12.8h142.6C336.5,178.9,335.4,183.2,335,187.8z M371.7,221.7c-17.1,0-31-13.9-31-31
		c0-17.1,13.9-31,31-31c17.1,0,31,13.9,31,31C402.7,207.8,388.8,221.7,371.7,221.7z M435.1,187.8h-26.6c-0.4-4.5-1.5-8.9-3.4-12.8
		h30V187.8z"/>
	<path fill="#551C00" d="M272.6,39.9H218V26.1c0-1.6-1.3-2.9-2.9-2.9h-76.2c-1.6,0-2.9,1.3-2.9,2.9v86.1c0,1.6,1.3,2.9,2.9,2.9H215
		c1.6,0,2.9-1.3,2.9-2.9v-2.4h54.6c1.6,0,2.9-1.3,2.9-2.9v-64C275.5,41.2,274.2,39.9,272.6,39.9z M171.3,29h8.5v20.4h-8.5V29z
		 M212.1,109.3h-70.3V29h23.7v23.3c0,1.6,1.3,2.9,2.9,2.9h14.3c1.6,0,2.9-1.3,2.9-2.9V29h26.5V109.3z M240.6,45.7h4.1v16.3h-4.1
		V45.7z M269.7,103.9H218V45.7h16.8V65c0,1.6,1.3,2.9,2.9,2.9h9.9c1.6,0,2.9-1.3,2.9-2.9V45.7h19.2V103.9z"/>
	<path fill="#551C00" d="M328.9,112.2V50.4c0-1.6-1.3-2.9-2.9-2.9h-19.5c-1.6,0-2.9,1.3-2.9,2.9v61.8c0,1.6,1.3,2.9,2.9,2.9H326
		C327.6,115.1,328.9,113.8,328.9,112.2z M323,109.3h-13.6v-56H323V109.3z"/>
	<path fill="#551C00" d="M340,115.1h65.6c1,0,2-0.5,2.5-1.4c0.5-0.9,0.5-2,0-2.9L374.3,49c-0.5-0.9-1.5-1.5-2.6-1.5H340
		c-1.6,0-2.9,1.3-2.9,2.9v61.8C337.1,113.8,338.4,115.1,340,115.1z M400.7,109.3H395l-17.9-17.8l9.3-8.3L400.7,109.3z M342.9,53.3
		H370l13.5,24.6L371,89.1c-0.1,0.1-0.2,0.1-0.2,0.2c0,0,0,0,0,0.1l-11.4,10.2c-1.2,1.1-1.3,2.9-0.2,4.1c0.6,0.6,1.4,1,2.2,1
		c0.7,0,1.4-0.2,1.9-0.7l9.5-8.6l14,13.9h-43.8V53.3z"/>
	<path fill="#551C00" d="M342.9,131.5c0-1.6-1.3-2.9-2.9-2.9h-20.3c-1.6,0-2.9,1.3-2.9,2.9c0,1.6,1.3,2.9,2.9,2.9H340
		C341.6,134.4,342.9,133.1,342.9,131.5z"/>
	<path fill="#551C00" d="M2.9,29h61.5c1.6,0,2.9-1.3,2.9-2.9c0-1.6-1.3-2.9-2.9-2.9H2.9c-1.6,0-2.9,1.3-2.9,2.9
		C0,27.7,1.3,29,2.9,29z"/>
	<path fill="#551C00" d="M30.7,53.9c0,1.6,1.3,2.9,2.9,2.9h51.4c1.6,0,2.9-1.3,2.9-2.9c0-1.6-1.3-2.9-2.9-2.9H33.7
		C32,51,30.7,52.3,30.7,53.9z"/>
	<path fill="#551C00" d="M2.9,90.4h44.9c1.6,0,2.9-1.3,2.9-2.9s-1.3-2.9-2.9-2.9H2.9c-1.6,0-2.9,1.3-2.9,2.9S1.3,90.4,2.9,90.4z"/>
</g>
</svg>
